<mxfile host="app.diagrams.net" modified="2023-11-02T19:11:30.695Z" agent="Mozilla/5.0 (X11; Linux x86_64; rv:109.0) Gecko/20100101 Firefox/114.0" version="22.0.8" etag="kLl4GKMcr_G1E6w84do0" type="github">
  <diagram name="PÃ¡gina-1" id="w1vZ6GNcI8o2BXxnwdbD">
    <mxGraphModel>
      <root>
        <mxCell id="0" />
        <mxCell id="1" parent="0" />
      </root>
    </mxGraphModel>
  </diagram>
</mxfile>
